<svg viewBox="0 0 123 30" fill="none" xmlns="http://www.w3.org/2000/svg">
    <path d="M32.5 7.5H28.5V22.5H32.5V7.5Z" fill="white" />
    <path d="M39.5 7.5H35.5V22.5H39.5V7.5Z" fill="white" />
    <path d="M46.5 7.5H42.5V22.5H46.5V7.5Z" fill="white" />
    <path d="M53.5 7.5H49.5V22.5H53.5V7.5Z" fill="white" />
    <path d="M60.5 7.5H56.5V22.5H60.5V7.5Z" fill="white" />
    <path d="M67.5 7.5H63.5V22.5H67.5V7.5Z" fill="white" />
    <path d="M74.5 7.5H70.5V22.5H74.5V7.5Z" fill="white" />
    <path d="M81.5 7.5H77.5V22.5H81.5V7.5Z" fill="white" />
    <path d="M88.5 7.5H84.5V22.5H88.5V7.5Z" fill="white" />
    <path d="M95.5 7.5H91.5V22.5H95.5V7.5Z" fill="white" />
    <path d="M102.5 7.5H98.5V22.5H102.5V7.5Z" fill="white" />
    <path d="M109.5 7.5H105.5V22.5H109.5V7.5Z" fill="white" />
    <path d="M116.5 7.5H112.5V22.5H116.5V7.5Z" fill="white" />
    <path d="M123.5 7.5H119.5V22.5H123.5V7.5Z" fill="white" />
    <path d="M25.5 7.5H21.5V22.5H25.5V7.5Z" fill="white" />
    <path d="M18.5 7.5H14.5V22.5H18.5V7.5Z" fill="white" />
    <path d="M11.5 7.5H7.5V22.5H11.5V7.5Z" fill="white" />
    <path d="M4.5 7.5H0.5V22.5H4.5V7.5Z" fill="white" />
</svg>